<svg xmlns="http://www.w3.org/2000/svg" viewBox="0 0 900 675" role="img" aria-labelledby="title desc">
  <title id="title">Kit pano de prato</title>
  <desc id="desc">Tres panos de prato dobrados com estampas coloridas sobre uma textura de tecido natural.</desc>
  <defs>
    <linearGradient id="cloth" x1="0" x2="1" y1="0" y2="1">
      <stop offset="0" stop-color="#fffaf2"/>
      <stop offset="1" stop-color="#f5eee2"/>
    </linearGradient>
    <pattern id="weave" width="24" height="24" patternUnits="userSpaceOnUse" patternTransform="rotate(35)">
      <rect width="24" height="24" fill="#c9b79c"/>
      <path d="M0 6h24M0 18h24" stroke="#9f8d75" stroke-width="3" opacity=".55"/>
    </pattern>
    <pattern id="printA" width="70" height="70" patternUnits="userSpaceOnUse">
      <rect width="70" height="70" fill="#fff1d6"/>
      <circle cx="18" cy="22" r="8" fill="#e0562f"/>
      <circle cx="48" cy="48" r="9" fill="#6f9f4e"/>
      <path d="M34 18c13 9 13 24 0 34" fill="none" stroke="#a24d2b" stroke-width="5" stroke-linecap="round"/>
    </pattern>
    <pattern id="printB" width="74" height="74" patternUnits="userSpaceOnUse">
      <rect width="74" height="74" fill="#f6b36f"/>
      <path d="M0 20h74M0 54h74M20 0v74M54 0v74" stroke="#d66c38" stroke-width="5" opacity=".45"/>
      <circle cx="36" cy="36" r="12" fill="#fff7e7"/>
      <path d="M28 38c8 8 18 4 21-6" fill="none" stroke="#47251f" stroke-width="5" stroke-linecap="round"/>
    </pattern>
    <pattern id="printC" width="76" height="76" patternUnits="userSpaceOnUse">
      <rect width="76" height="76" fill="#f3dec3"/>
      <ellipse cx="22" cy="25" rx="14" ry="9" fill="#8f6f4a"/>
      <ellipse cx="54" cy="50" rx="14" ry="9" fill="#b78a5c"/>
      <path d="M14 24h16M46 49h16" stroke="#5f472e" stroke-width="3"/>
    </pattern>
  </defs>
  <rect width="900" height="675" fill="url(#weave)"/>
  <rect x="120" y="95" width="660" height="485" rx="38" fill="#000" opacity=".11"/>
  <g transform="translate(144 72)">
    <rect x="0" y="0" width="612" height="485" rx="32" fill="#fff8ed"/>
    <rect x="0" y="0" width="612" height="485" rx="32" fill="url(#cloth)" opacity=".9"/>
    <g transform="translate(46 58)">
      <rect x="0" y="0" width="155" height="355" rx="22" fill="#fefefe"/>
      <rect x="180" y="0" width="155" height="355" rx="22" fill="#fefefe"/>
      <rect x="360" y="0" width="155" height="355" rx="22" fill="#fefefe"/>
      <rect x="0" y="172" width="155" height="183" rx="0 0 22 22" fill="url(#printA)"/>
      <rect x="180" y="172" width="155" height="183" rx="0 0 22 22" fill="url(#printB)"/>
      <rect x="360" y="172" width="155" height="183" rx="0 0 22 22" fill="url(#printC)"/>
      <path d="M77 0v355M257 0v355M437 0v355" stroke="#e3d8ca" stroke-width="2" opacity=".7"/>
      <path d="M-16 170h548" stroke="#ead3b8" stroke-width="12" stroke-linecap="round"/>
      <path d="M-16 185h548" stroke="#fff7ee" stroke-width="8" stroke-linecap="round"/>
      <path d="M70 120h395" stroke="#b58f58" stroke-width="10" stroke-linecap="round"/>
      <path d="M257 120c-34 37-55 77-42 117 9 28 37 36 63 18 41-29 16-101-21-135Z" fill="none" stroke="#b58f58" stroke-width="10" stroke-linecap="round"/>
      <circle cx="257" cy="120" r="13" fill="#caa56e"/>
      <rect x="200" y="86" width="120" height="92" rx="6" fill="#c5ae8b" opacity=".55" transform="rotate(-11 260 132)"/>
    </g>
  </g>
</svg>
