<svg xmlns="http://www.w3.org/2000/svg" viewBox="0 0 900 675" role="img" aria-labelledby="title desc">
  <title id="title">Kit lavabo</title>
  <desc id="desc">Kit lavabo preto com difusor, saboneteira e bandeja sobre bancada clara.</desc>
  <defs>
    <linearGradient id="marble" x1="0" x2="1" y1="0" y2="1">
      <stop offset="0" stop-color="#fffaf4"/>
      <stop offset=".55" stop-color="#e7ddd2"/>
      <stop offset="1" stop-color="#f9f5ef"/>
    </linearGradient>
    <linearGradient id="glass" x1="0" x2="1" y1="0" y2="1">
      <stop offset="0" stop-color="#1b1718"/>
      <stop offset=".55" stop-color="#070707"/>
      <stop offset="1" stop-color="#4c4545"/>
    </linearGradient>
    <linearGradient id="gold" x1="0" x2="1">
      <stop offset="0" stop-color="#8e6a2d"/>
      <stop offset=".5" stop-color="#f2ca75"/>
      <stop offset="1" stop-color="#8e6a2d"/>
    </linearGradient>
    <filter id="shadow" x="-20%" y="-20%" width="140%" height="140%">
      <feDropShadow dx="0" dy="22" stdDeviation="24" flood-color="#3a1d27" flood-opacity=".22"/>
    </filter>
  </defs>
  <rect width="900" height="675" fill="#efe7df"/>
  <rect y="360" width="900" height="315" fill="url(#marble)"/>
  <path d="M0 420c140-30 240 40 370 8 126-31 230-89 530-30" fill="none" stroke="#cfc4ba" stroke-width="8" opacity=".45"/>
  <path d="M70 510c115-20 205 22 316 6 143-20 245-64 438-24" fill="none" stroke="#fff" stroke-width="10" opacity=".6"/>
  <g filter="url(#shadow)" transform="translate(190 215)">
    <rect x="0" y="248" width="520" height="54" rx="14" fill="#181315"/>
    <rect x="28" y="224" width="464" height="52" rx="12" fill="#2b2425"/>
    <rect x="48" y="236" width="424" height="18" rx="9" fill="#5a5251" opacity=".45"/>
    <g transform="translate(92 30)">
      <rect x="0" y="116" width="135" height="185" rx="20" fill="url(#glass)"/>
      <rect x="21" y="140" width="93" height="138" rx="13" fill="#fff" opacity=".06"/>
      <rect x="36" y="80" width="62" height="48" rx="10" fill="url(#gold)"/>
      <rect x="51" y="42" width="32" height="48" rx="9" fill="url(#gold)"/>
      <path d="M67 42V0" stroke="#191617" stroke-width="10" stroke-linecap="round"/>
      <path d="M52 38 30-12M82 38 107-20" stroke="#191617" stroke-width="8" stroke-linecap="round"/>
      <path d="M102 154c30 10 46 30 46 57 0 40-34 61-71 55" fill="none" stroke="#b98c43" stroke-width="12" stroke-linecap="round"/>
    </g>
    <g transform="translate(292 72)">
      <rect x="0" y="116" width="135" height="185" rx="20" fill="url(#glass)"/>
      <rect x="21" y="140" width="93" height="138" rx="13" fill="#fff" opacity=".06"/>
      <rect x="30" y="70" width="76" height="48" rx="10" fill="url(#gold)"/>
      <rect x="18" y="48" width="100" height="18" rx="9" fill="url(#gold)"/>
      <rect x="55" y="12" width="26" height="44" rx="8" fill="url(#gold)"/>
      <path d="M103 154c28 10 43 29 43 55 0 40-33 61-69 55" fill="none" stroke="#b98c43" stroke-width="12" stroke-linecap="round"/>
    </g>
  </g>
</svg>
